/* XPM */
static char *fc2759e9928241fdb3e968063ffa7819[] = {
/* columns rows colors chars-per-pixel */
"68 64 155 2 ",
"   c DarkGreen",
".  c #2B2612",
"X  c #2E2813",
"o  c #322B14",
"O  c #3C3216",
"+  c #4C3F1B",
"@  c #4F421C",
"#  c #51431C",
"$  c #5A4A1D",
"%  c #634F1C",
"&  c #715A1B",
"*  c #7A641E",
"=  c #665420",
"-  c #695623",
";  c #6C5A22",
":  c #725D21",
">  c #766324",
",  c #796422",
"<  c #7D6826",
"1  c #746028",
"2  c #7A6629",
"3  c #7E6A29",
"4  c #846B25",
"5  c #816C29",
"6  c #85712A",
"7  c #8A762A",
"8  c #8E782C",
"9  c #937C2D",
"0  c #836F31",
"q  c #937C31",
"w  c #9B8324",
"e  c #97812F",
"r  c #9B842E",
"t  c #9F8D2E",
"y  c #9D8631",
"u  c #9F8B32",
"i  c #A18A26",
"p  c #A38B2C",
"a  c #A79128",
"s  c #AB952A",
"d  c #AC982C",
"f  c #B5972E",
"g  c #B09F2D",
"h  c #B89B2F",
"j  c #A48B33",
"k  c #A88E34",
"l  c #A79134",
"z  c #AC9335",
"x  c #AF9A34",
"c  c #AF9A38",
"v  c #B19737",
"b  c #B49B37",
"n  c #B89E35",
"m  c #B39C38",
"M  c #BEA134",
"N  c #BDAC32",
"B  c #B6A039",
"V  c #BCA339",
"C  c #BDA93C",
"Z  c #D7B62F",
"A  c #C3A534",
"S  c #C9A331",
"D  c #C6A837",
"F  c #CDA931",
"G  c #C1A538",
"H  c #C3AC3B",
"J  c #C9AC3A",
"K  c #D4AD30",
"L  c #C1B335",
"P  c #C5BF37",
"I  c #C4B23E",
"U  c #CAB33C",
"Y  c #CDBA3D",
"T  c #D7B131",
"R  c #D7BA32",
"E  c #D8BC33",
"W  c #D1BC3F",
"Q  c #CDC43E",
"!  c #CDCB3D",
"~  c #D9C036",
"^  c #D9C53B",
"/  c #D1CC3F",
"(  c #DCC93D",
")  c #CFD03C",
"_  c #D2D23E",
"`  c #C5B740",
"'  c #C8B740",
"]  c #C7B841",
"[  c #CBBC42",
"{  c #C6B24F",
"}  c #D2BF40",
"|  c #CDC244",
" . c #D2C543",
".. c #D8C642",
"X. c #D5CB46",
"o. c #DBCC44",
"O. c #D7CF48",
"+. c #DDD145",
"@. c #DADB46",
"#. c #DBD34A",
"$. c #DEDA4C",
"%. c #E5DE44",
"&. c #E0D64A",
"*. c #E2DD4E",
"=. c #E0DF4F",
"-. c #E1DF4F",
";. c #E3DE4F",
":. c #E2DE4F",
">. c #E1DC4D",
",. c #E4DF4D",
"<. c #E1DB4B",
"1. c #E0DD50",
"2. c #DFE04D",
"3. c #E7E047",
"4. c #E8E245",
"5. c #E9E347",
"6. c #E9E447",
"7. c #EAE447",
"8. c #E7E349",
"9. c #E7E34B",
"0. c #E0E14F",
"q. c #E1E14F",
"w. c #E1E04F",
"e. c #E2E14F",
"r. c #E8E349",
"t. c #E9E54A",
"y. c #EAE54A",
"u. c #EBE64B",
"i. c #E9E44D",
"p. c #E3E250",
"a. c #E4E050",
"s. c #E4E150",
"d. c #E4E250",
"f. c #E5E250",
"g. c #E6E250",
"h. c #E7E351",
"j. c #E4E357",
"k. c #EEEE5A",
"l. c #F4F65D",
"z. c #F5F95F",
"x. c #F7F95F",
"c. c #F6F85F",
"v. c #F5F85F",
"b. c #F8F85F",
"n. c #F4F761",
"m. c #F5F860",
"M. c #F6FA60",
"N. c #F7F962",
"B. c #F7F963",
"V. c #F6FA63",
"C. c #F7FA63",
"Z. c #F7FE62",
"A. c #F5F962",
"S. c #F8FA62",
"D. c #EAE789",
/* pixels */
"                                                                                                                                        ",
"                                                                    y.                                                                  ",
"                                                                    i.                                                                  ",
"                                                                  y.$ 6.                                                                ",
"                                                                  y.# y.                                                                ",
"                                                                  > . 4                                                                 ",
"                                                                y.; E ; 6.                                                              ",
"                                                                , O ( ; 6.                                                              ",
"                                                              6.; ( o.~ > y.                                                            ",
"                                                              y.; +.+.( ; 6.                                                            ",
"                                                            6.> ( +.+.o.; <                                                             ",
"                                                            6.; +.#.+.+.( > 6.                                                          ",
"                                                          8.> ( &.<.&.+.o.; 4.                                                          ",
"                                                          r.> &.$.$.&.&.+.^ < 3.                                                        ",
"                                                          > / <.<.<.$.&.+.o.> 3.                                                        ",
"                                                        8.> <.=.=.=.<.&.+.+.Y >                                                         ",
"                                                        6 + =.=.=.=.<.<.&.+.^ > 3.                                                      ",
"                                                      3.> $.d.d.=.=.<.&.&.+.o.> ,.                                                      ",
"                                                      %.> =.d.d.d.=.=.&.&.#.o.Y > %.                                                    ",
"                                                    3.> @.d.d.d.d.=.=.<.&.+.o...> %.                                                    ",
"                                                    4.> d.d.d.d.d.=.=.&.#.+.o...U > ,.                                                  ",
"                                                  %.> @.d.d.d.d.d.=.<.&.&.+.o.o.Y > %.                                                  ",
"                                                  %.> 0.d.d.d.d.1.=.=.&.#.+.o...} @ t S.S.S.S.S.S.c.                                    ",
"                      D.m.S.S.S.S.S.S.S.S.m.#., , , / 0.h.d.d.d.=.<.&.&.#.+.o.o. .U X , , , , , , , , * m.S.S.S.S.S.S.m.                ",
"      S.S.S.S.m.,., , , , , , * , , , , , X ! ) _ _ 2.d.d.d.d.=.=.<.$.#.+.+.o... .W U J A M M n s a i w o % % % % % = , , * Z.Z.S.m.    ",
"        ; 6 # . p d g N N L P Q Q / _ +.@.$.$.$.$.2.a.d.d.d.d.=.<.$.&.#.+.o.o... .W Y Y U J J D A G A M M M n f f s a i w 9 # 8 ;       ",
"          ; | - H J U Y W  . .X.O.O.#.#.$.<.0.=.0.j.0.a.=.=.=.<.$.#.&.+.X.O... . .W W Y U U U J J J D D A A A A M M M M h 7 c.:         ",
"            ; m.8 U Y Y }  .X.X.X.+.#.$.$.$.<.=.0.,.0.=.$.=.$.$.$.#.+.X.o.X... .} W W Y U U U U J J J J A A A A A A M n q c.:           ",
"              : c.q I [ }  . . .O.O.#.#.$.$.$.$.$.1.1.$.$.$.$.#.#.#.X.X.X. . .} W Y Y U U U U J J J J J D D A A G A n c.: >             ",
"                : k.c.U [  . .X.X.O.X.#.#.#.$.$.$.$.$.$.$.#.#.#.#.O.o.X. . . .W Y [ Y U U U J J J J J J A A D A A 9 c.:                 ",
"                  0 ; b.' [  . . .X.X.O.#.#.#.#.#.#.#.#.#.#.#.#.O.X.X. . .} W [ Y U U U U J D D J A H A G G G M 2 m.:                   ",
"                      : c.U [ | |  .X.X.O.O.O.#.#.#.#.#.#.#.O.X.X. . . .[ [ [ [ U U U J J J J H D H G G G G M b.C.:                     ",
"                        : c.x [ |  . .X. .X.X.O.O.O.O.X.X.O.X. . . .[ [ [ [ ' U U I J J J D H V G G G M V n c.l.:                       ",
"                          : m.; [ [ |  . . . . . . . . . . . . .| [ [ [ [ U U I J J J H H H G G G V M V n c.> &                         ",
"                            : m.c.U [ [ | | | |  .| | | | | [ | [ [ ] ] I I I I J D D H C V V V V V n j c.:                             ",
"                              : c.c.I ] [ [ [ [ | | [ [ [ [ [ ] ] ] ' I I I H H H H C V V V M V n n t m.,                               ",
"                                : m.c.I I ` ] ] ] ] ] ] ] ] U U I I I I H H H C C V V V M V V n b m.c.,                                 ",
"                                  > , l.H ` I ` ` I U ` I ` I I I I H H H C C G V V V V V n n b m.m.,                                   ",
"                                      , l.C H I I I I I I I H H H H C C C C V V V B n n n m b $ 5 ,                                     ",
"                                        , 3 C C H H H H H H C C C C C C V B V V m n m m m m z r 5 T                                     ",
"                                        E 3 m C C C C C C C C V V V V B B B n m m m m m b v z r 5 Z                                     ",
"                                        3 y m B B V V V V B V B B B B B m m m m m m m v v v z j 5 Z                                     ",
"                                      E 3 u c m B B B B B B B B n m m m m m m m m m v z z z z j 3 T                                     ",
"                                      R 3 j z m m m m m m m m m m m m m m m c v z v v z z z k j 8 3                                     ",
"                                      R 3 k z c v m m m m m m c m v m c z z v z z z z z z z k j 9 5 T                                   ",
"                                      < 6 j z z v z v c v c v c v z z z z z z z z z z z k k k j r 3 T                                   ",
"                                    Z 3 e j z z z z z z z z z z z z z z z z z z z z z z k k k j y 3 K                                   ",
"                                    T 3 y j z z z z z z z z z z z z z z z z z z z z z k k k j j y $ 7                                   ",
"                                    T 3 r j j z z z z z z z z z z j C.C.9 j k k k k k k k k j j y 7 3 F                                 ",
"                                    3 > y j k z z z z z k l j j C.C., , C.C.u j j k k j k j j j y 9 3 F                                 ",
"                                  K 3 8 y j j j k k j j k j , C., ,     , , m.` j j j j j j j j j e 3 F                                 ",
"                                  K 3 9 y j j j j j j j r C.c.*             , b.m.r j j j j j j y r 4 S                                 ",
"                                  F 4 e y u j j j j y m.C.*                     * m.c.j j j j j y y 3 3                                 ",
"                                  3 > y y j j j j l.c.* *                         , > c.1 y j j y y 7 3 S                               ",
"                                F 3 7 y y y y > m.=.*                                 * l.l.y y y y 9 4 A                               ",
"                                S 4 9 y y y l.c.*                                       * , l.j y y 9 4 M                               ",
"                                S 3 9 9 j c.* 5                                             , l.C 6 9 @ p                               ",
"                                3 = q l.* *                                                     * l.y > 4 {                             ",
"                              A 4 y n.*                                                           * , y < f                             ",
"                              M y *                                                                   * ,.f                             ",
"                              w ,                                                                         ,                             ",
"                                                                                                                                        ",
"                                                                                                                                        ",
"                                                                                                                                        "
};
