/* XPM */
static char *_f46db3d873d4a85a72ee4bc07febca9[] = {
/* columns rows colors chars-per-pixel */
"52 64 14 1 ",
"  c None",
". c #070207",
"X c #070208",
"o c #070308",
"O c #480F0F",
"+ c #4F1110",
"@ c #BC261D",
"# c #C3281E",
"$ c #C42B22",
"% c #C42E25",
"& c #D25D55",
"* c #E5A5A1",
"= c #FAEDED",
"- c white",
/* pixels */
"oooooooooooooooooooooooooooooooooooooooooooooooooooo",
"oooooooooooooooooooooooooooooooooooooooooooooooooooo",
"oo######################oooooooooooooooooooooooooooo",
"oo#######------#########oooooooooooooooooooooooooooo",
"oo#######-####---#######oooooooooooooooooooooooooooo",
"oo######-----###--######oooooooooooooooooooooooooooo",
"oo#####---------------##oooooooooooooooooooooooooooo",
"oo####--#--#-#-##--#--##oooooooooooooooooooooooooooo",
"oo###--##--###-##--##-##oo########################oo",
"oo###-###--###-##--#####oo########################oo",
"oo##--###--###-##-######oo########################oo",
"oo##--###--###-#--######oo########################oo",
"oo##--###----%-------###oo########################oo",
"oo##---##------#----####oo########################oo",
"oo###--##--###--###-####oo########################oo",
"oo####--=--###---#######oo@@@@@@@@@@@@@@@@@@@@@@@@oo",
"oo#####------#-#--######oooooooooooooooooooooooooooo",
"oo########&###-#--###$##oooooooooooooooooooooooooooo",
"oo#######--###-*#----###oooooooooooooooooooooooooooo",
"oo#######--##---##--####oooooooooooooooooooooooooooo",
"oo########--##--########oooooooooooooooooooooooooooo",
"oooooooooooooooooooooooooooooooooooooooooooooooooooo",
"oooooooooooooooooooooooooooooooooooooooooooooooooooo",
"oo################################################oo",
"oo################################################oo",
"oo################################################oo",
"oo################################################oo",
"oo################################################oo",
"oo################################################oo",
"oo################################################oo",
"oo################################################oo",
"oooooooooooooooooooooooooooooooooooooooooooooooooooo",
" oooooooooooooooooooooooooooooooooooooooooooooooooo ",
" oooooooooooooooooooooooooooooooooooooooooooooooooo ",
" oooooooooooooooooooooooooooooooooooooooooooooooooo ",
" oooooooooooooooooooooooooooooooooooooooooooooooooo ",
" ooooooooooooooooooooooooooooooooooooooooooooooooo. ",
"  oooooooooooooooooooooooooooooooooooooooooooooooo  ",
"  oooooooooooooooooooooooooooooooooooooooooooooooo  ",
"  ooo##########################################ooo  ",
"   oo##########################################oo   ",
"   oo##########################################oo   ",
"    oo########################################oo    ",
"    oo########################################oo    ",
"     oo######################################oo     ",
"     ooO####################################+oo     ",
"      oo####################################oo      ",
"      oooooooooooooooooooooooooooooooooooooooo      ",
"       oooooooooooooooooooooooooooooooooooooo       ",
"        oooooooooooooooooooooooooooooooooooo        ",
"        oooooooooooooooooooooooooooooooooooo        ",
"         oooooooooooooooooooooooooooooooooo         ",
"          oooooooooooooooooooooooooooooooo          ",
"           oooooooooooooooooooooooooooooo           ",
"            ooo######################ooo            ",
"             ooo####################ooo             ",
"              ooo##################ooo              ",
"               ooo################ooo               ",
"                oooo############oooo                ",
"                  ooo##########ooo                  ",
"                   oooo######oooo                   ",
"                     oooo##oooo                     ",
"                       oooooo                       ",
"                         oo                         "
};
