/* XPM */
static char *f15e0097f5164356b1b433a124555ba7[] = {
/* columns rows colors chars-per-pixel */
"16 40 177 2 ",
"   c DarkGreen",
".  c #010004",
"X  c #1C0405",
"o  c #1F0810",
"O  c #191C1D",
"+  c #2B0002",
"@  c #2D0C00",
"#  c #300000",
"$  c #3B0C00",
"%  c #251700",
"&  c #351706",
"*  c #271218",
"=  c #3D2305",
"-  c #3D3409",
";  c #3C251D",
":  c #3A2616",
">  c #301E21",
",  c #16242B",
"<  c #242424",
"1  c #2A2D26",
"2  c #33293B",
"3  c #26343C",
"4  c #3A3A3A",
"5  c #410A09",
"6  c #4D150F",
"7  c #452401",
"8  c #563D0F",
"9  c #472218",
"0  c #4D331C",
"q  c #5E3A11",
"w  c #58371B",
"e  c #442C23",
"r  c #49372A",
"t  c #503F28",
"y  c #563929",
"u  c #563F32",
"i  c #5F471B",
"p  c #784B08",
"a  c #4A4822",
"s  c #414C3F",
"d  c #5C4833",
"f  c #644526",
"g  c #634A35",
"h  c #6B4A33",
"j  c #64463B",
"k  c #6A5334",
"l  c #6A513C",
"z  c #785536",
"x  c #7F713A",
"c  c #393840",
"v  c #393442",
"b  c #423E44",
"n  c #43414C",
"m  c #48454A",
"M  c #504C48",
"N  c #465048",
"B  c #524C58",
"V  c #5D535E",
"C  c #674A49",
"Z  c #65554A",
"A  c #755847",
"S  c #625857",
"D  c #796857",
"F  c #5A5A65",
"G  c #635D6B",
"H  c #60546B",
"J  c #5C616B",
"K  c #67636A",
"L  c #7D716A",
"P  c #716E72",
"I  c #736B7D",
"U  c #797677",
"Y  c #855E2A",
"T  c #894C38",
"R  c #885A36",
"E  c #B25F29",
"W  c #A55B32",
"Q  c #8D792D",
"!  c #856D3C",
"~  c #847438",
"^  c #97743E",
"/  c #A66B3E",
"(  c #A95E41",
")  c #876448",
"_  c #926A4B",
"`  c #8A724F",
"'  c #907549",
"]  c #8E6554",
"[  c #83715B",
"{  c #957755",
"}  c #B1684F",
"|  c #A36A54",
" . c #AB705B",
".. c #946A67",
"X. c #8F796D",
"o. c #997666",
"O. c #957F6D",
"+. c #837B7F",
"@. c #877975",
"#. c #937B73",
"$. c #A86F60",
"%. c #A2746B",
"&. c #A17F64",
"*. c #A67B73",
"=. c #7A8367",
"-. c #9C825D",
";. c #AA8351",
":. c #AF9A5B",
">. c #949563",
",. c #858271",
"<. c #89837E",
"1. c #90887C",
"2. c #8A937B",
"3. c #A8946F",
"4. c #A49877",
"5. c #C98976",
"6. c #6C6882",
"7. c #777887",
"8. c #7F7592",
"9. c #506BAD",
"0. c #417AB7",
"q. c #926B88",
"w. c #897D83",
"e. c #878482",
"r. c #8E8B8D",
"t. c #948C86",
"y. c #8F9483",
"u. c #9A948A",
"i. c #8C8796",
"p. c #9C949B",
"a. c #989894",
"s. c #A3958B",
"d. c #B29A87",
"f. c #AB9F93",
"g. c #A89694",
"h. c #AAA489",
"j. c #A6A49B",
"k. c #B3A19E",
"l. c #8E8CA9",
"z. c #9492A2",
"x. c #8A86B4",
"c. c #889ABB",
"v. c #9A9CBA",
"b. c #A99EA8",
"n. c #99BEA5",
"m. c #ABA6A7",
"M. c #B5A6A6",
"N. c #A9AAB9",
"B. c #BBAAB1",
"V. c #AEB1BC",
"C. c #BAB5BD",
"Z. c #BBBDBC",
"A. c #B5B7B7",
"S. c #C2A4A3",
"D. c #C3BABB",
"F. c #9CC69C",
"G. c #CCCBB9",
"H. c #E8E2B7",
"J. c #B5BCC4",
"K. c #BFB4C6",
"L. c #CABFC4",
"P. c #CACDD2",
"I. c #C6C5D6",
"U. c #D1CADC",
"Y. c #C9D0D1",
"T. c #D6D4D5",
"R. c #D9D8DE",
"E. c #E4DFCB",
"W. c #E0DBDB",
"Q. c #E8E1DF",
"!. c #DDDDE4",
"~. c #DAD2E1",
"^. c #E9E8EA",
"/. c #EEEEF3",
"(. c #F6F6FB",
"). c #FCFDFD",
"_. c #F6F5F7",
/* pixels */
"                                ",
"              O                 ",
"              S                 ",
"                                ",
"              ,                 ",
"            C.N <               ",
"          7.4 1 X b ).          ",
"        e.J 7.* o O !.r.        ",
"    .   (.f.U.f.@.7.w.F 3 v     ",
"    :.p p.w.(.@.A V.L D - +.    ",
"    P   K ,.T.>.Q >.p.P         ",
"          Z.A.- a m.C.          ",
"          2 1 G.D.(.2           ",
"              N.m.              ",
"              t.R.              ",
"              V R.              ",
"              B V.              ",
"              K P.              ",
"              6.).              ",
"              a.c               ",
"            G ).U _.            ",
"        ^.A.W.D.T.P./.Y.        ",
"      n J.h.b.).u E.S (.~.      ",
"      n P 3 +.> * 4 4 B I.      ",
"    m U Z } g.H.&.[ @.#.5.      ",
"    I ).i.*.;.! S.o.y.k.v.i.    ",
"    H ).j.%.-.' ( _ 2.u.K.8.    ",
"    F ^.r o.-.~ W { =.s.9.8.    ",
"    I Q.d w 9 7 f 6 0 q ^.z.    ",
"    l.Z.c...#.x E | s M.v.7.    ",
"    q.!.F.| d.) T $.a.m.x.6.    ",
"    l M n.%.4.` m. .r.f.L.C     ",
"    i./.0.y ] g / _ j.M.x.G     ",
"    e.).<.#.D d w X.,.h.J.b.    ",
"    <.).< O.k k h g.1.j.R.N.    ",
"    g f i 7 7 5 $ & = 8 z h     ",
"    { B.r : % + # : ; = D Z     ",
"  m.R Y t e & X + & r q 3.A     ",
"    ^ z t j ; @ + e C f ) l     ",
"                                "
};
